<mxfile host="65bd71144e">
    <diagram id="UERxpnZ0qvuATKecavCF" name="V2">
        <mxGraphModel dx="2661" dy="2309" grid="1" gridSize="4" guides="1" tooltips="1" connect="1" arrows="1" fold="1" page="1" pageScale="1" pageWidth="1169" pageHeight="827" math="0" shadow="0">
            <root>
                <mxCell id="0"/>
                <mxCell id="1" parent="0"/>
                <mxCell id="Va1K0bKig-O1nhW0etFX-29" value="1" style="ellipse;whiteSpace=wrap;html=1;aspect=fixed;fontSize=18;opacity=60;fillColor=#a20025;fontColor=#ffffff;strokeColor=#6F0000;container=0;" parent="1" vertex="1">
                    <mxGeometry x="356" y="8" width="25" height="25" as="geometry"/>
                </mxCell>
                <mxCell id="2i_cKFGTGKDReKxksOiq-28" value="" style="group;strokeColor=none;container=0;" parent="1" vertex="1" connectable="0">
                    <mxGeometry x="356" y="38" width="436" height="302" as="geometry"/>
                </mxCell>
                <mxCell id="2i_cKFGTGKDReKxksOiq-29" value="" style="group" parent="1" vertex="1" connectable="0">
                    <mxGeometry x="452" y="444" width="432" height="302" as="geometry"/>
                </mxCell>
                <mxCell id="2i_cKFGTGKDReKxksOiq-30" value="" style="rounded=0;whiteSpace=wrap;html=1;glass=0;shadow=0;container=0;" parent="2i_cKFGTGKDReKxksOiq-29" vertex="1">
                    <mxGeometry width="432" height="302" as="geometry"/>
                </mxCell>
                <mxCell id="2i_cKFGTGKDReKxksOiq-31" value="LOAD CSV" style="rounded=0;whiteSpace=wrap;html=1;container=0;" parent="2i_cKFGTGKDReKxksOiq-29" vertex="1">
                    <mxGeometry x="223.67889908256882" y="264.33000000000004" width="89.17431192660551" height="30" as="geometry"/>
                </mxCell>
                <mxCell id="2i_cKFGTGKDReKxksOiq-32" value="APPLICA FUNZIONE" style="rounded=0;whiteSpace=wrap;html=1;container=0;" parent="2i_cKFGTGKDReKxksOiq-29" vertex="1">
                    <mxGeometry x="321.7706422018349" y="14" width="89.17431192660551" height="30" as="geometry"/>
                </mxCell>
                <mxCell id="2i_cKFGTGKDReKxksOiq-33" value="info" style="rounded=0;whiteSpace=wrap;html=1;container=0;" parent="2i_cKFGTGKDReKxksOiq-29" vertex="1">
                    <mxGeometry x="19.816513761467892" y="14" width="90.53174311926607" height="30" as="geometry"/>
                </mxCell>
                <mxCell id="2i_cKFGTGKDReKxksOiq-34" value="&lt;font color=&quot;#6e6e6e&quot;&gt;SAVE&lt;/font&gt;" style="rounded=0;whiteSpace=wrap;html=1;fontSize=11;opacity=50;container=0;" parent="2i_cKFGTGKDReKxksOiq-29" vertex="1">
                    <mxGeometry x="323.00917431192664" y="264.3299999999999" width="89.17431192660551" height="30" as="geometry"/>
                </mxCell>
                <mxCell id="2i_cKFGTGKDReKxksOiq-35" value="" style="group;rounded=1;" parent="2i_cKFGTGKDReKxksOiq-29" vertex="1" connectable="0">
                    <mxGeometry x="120.88073394495413" y="14" width="186.27522935779817" height="30" as="geometry"/>
                </mxCell>
                <mxCell id="2i_cKFGTGKDReKxksOiq-36" value="LISTA FUNZIONI" style="rounded=0;whiteSpace=wrap;html=1;container=0;" parent="2i_cKFGTGKDReKxksOiq-35" vertex="1">
                    <mxGeometry width="186.27522935779817" height="30" as="geometry"/>
                </mxCell>
                <mxCell id="2i_cKFGTGKDReKxksOiq-37" value="" style="triangle;whiteSpace=wrap;html=1;rotation=90;rounded=1;container=0;" parent="2i_cKFGTGKDReKxksOiq-35" vertex="1">
                    <mxGeometry x="168.80527391874182" y="8.439999999999998" width="8.874684141546528" height="13.12" as="geometry"/>
                </mxCell>
                <mxCell id="2i_cKFGTGKDReKxksOiq-38" value="RESET" style="rounded=0;whiteSpace=wrap;html=1;container=0;" parent="2i_cKFGTGKDReKxksOiq-29" vertex="1">
                    <mxGeometry x="21.055045871559635" y="264.3299999999999" width="90.53174311926607" height="30" as="geometry"/>
                </mxCell>
                <mxCell id="2i_cKFGTGKDReKxksOiq-39" value="INVERTI CSV" style="rounded=0;whiteSpace=wrap;html=1;container=0;" parent="2i_cKFGTGKDReKxksOiq-29" vertex="1">
                    <mxGeometry x="122.11926605504588" y="264.33000000000015" width="89.17431192660551" height="30" as="geometry"/>
                </mxCell>
                <mxCell id="2i_cKFGTGKDReKxksOiq-48" value="&lt;span style=&quot;white-space: pre;&quot;&gt;&#9;&lt;/span&gt;CSV 1: NOME CSV" style="rounded=0;whiteSpace=wrap;html=1;" parent="2i_cKFGTGKDReKxksOiq-29" vertex="1">
                    <mxGeometry x="19.816513761467892" y="234" width="190.23853211009174" height="24" as="geometry"/>
                </mxCell>
                <mxCell id="2i_cKFGTGKDReKxksOiq-49" value="&lt;span style=&quot;white-space: pre;&quot;&gt;&#9;&lt;/span&gt;CSV 2: NOME CSV" style="rounded=0;whiteSpace=wrap;html=1;" parent="2i_cKFGTGKDReKxksOiq-29" vertex="1">
                    <mxGeometry x="221.94495412844037" y="234" width="190.23853211009174" height="24" as="geometry"/>
                </mxCell>
                <mxCell id="2i_cKFGTGKDReKxksOiq-40" value="" style="group" parent="2i_cKFGTGKDReKxksOiq-29" vertex="1" connectable="0">
                    <mxGeometry x="19.816513761467892" y="54" width="410.20183486238534" height="246" as="geometry"/>
                </mxCell>
                <mxCell id="2i_cKFGTGKDReKxksOiq-41" value="PREVIEW DELLE PRIME &lt;br&gt;5 COLONNE" style="rounded=0;whiteSpace=wrap;html=1;container=0;" parent="2i_cKFGTGKDReKxksOiq-40" vertex="1">
                    <mxGeometry width="392.36697247706417" height="172" as="geometry"/>
                </mxCell>
                <mxCell id="2i_cKFGTGKDReKxksOiq-42" value="" style="group" parent="2i_cKFGTGKDReKxksOiq-40" vertex="1" connectable="0">
                    <mxGeometry x="3.923669724770642" y="146.70588235294116" width="112.47853211009175" height="25.294117647058822" as="geometry"/>
                </mxCell>
                <mxCell id="2i_cKFGTGKDReKxksOiq-43" value="CSV 1" style="text;html=1;strokeColor=none;fillColor=none;align=center;verticalAlign=middle;whiteSpace=wrap;rounded=1;fontSize=11;container=0;" parent="2i_cKFGTGKDReKxksOiq-42" vertex="1">
                    <mxGeometry y="6.323529411764706" width="65.39449541284402" height="12.647058823529411" as="geometry"/>
                </mxCell>
                <mxCell id="2i_cKFGTGKDReKxksOiq-44" value="CSV 2" style="text;html=1;strokeColor=none;fillColor=none;align=center;verticalAlign=middle;whiteSpace=wrap;rounded=1;fontSize=11;container=0;" parent="2i_cKFGTGKDReKxksOiq-42" vertex="1">
                    <mxGeometry x="56.239266055045874" y="6.323529411764706" width="56.239266055045874" height="12.647058823529411" as="geometry"/>
                </mxCell>
                <mxCell id="2i_cKFGTGKDReKxksOiq-45" value="" style="endArrow=none;html=1;fontSize=11;entryX=1.001;entryY=0.856;entryDx=0;entryDy=0;entryPerimeter=0;" parent="2i_cKFGTGKDReKxksOiq-42" target="2i_cKFGTGKDReKxksOiq-41" edge="1">
                    <mxGeometry width="50" height="50" relative="1" as="geometry">
                        <mxPoint x="56.239266055045874" as="sourcePoint"/>
                        <mxPoint x="291.6594495412844" as="targetPoint"/>
                    </mxGeometry>
                </mxCell>
                <mxCell id="2i_cKFGTGKDReKxksOiq-46" value="" style="endArrow=none;html=1;fontSize=11;" parent="2i_cKFGTGKDReKxksOiq-42" edge="1">
                    <mxGeometry width="50" height="50" relative="1" as="geometry">
                        <mxPoint x="56.239266055045874" y="25.294117647058822" as="sourcePoint"/>
                        <mxPoint x="56.239266055045874" as="targetPoint"/>
                    </mxGeometry>
                </mxCell>
                <mxCell id="2i_cKFGTGKDReKxksOiq-47" value="" style="endArrow=none;html=1;fontSize=11;" parent="2i_cKFGTGKDReKxksOiq-42" edge="1">
                    <mxGeometry width="50" height="50" relative="1" as="geometry">
                        <mxPoint x="108.5548623853211" y="25.294117647058822" as="sourcePoint"/>
                        <mxPoint x="108.5548623853211" as="targetPoint"/>
                    </mxGeometry>
                </mxCell>
                <mxCell id="2i_cKFGTGKDReKxksOiq-50" value="" style="group" parent="2i_cKFGTGKDReKxksOiq-40" vertex="1" connectable="0">
                    <mxGeometry x="57.467889908256886" y="-66" width="352.73394495412845" height="312" as="geometry"/>
                </mxCell>
                <mxCell id="2i_cKFGTGKDReKxksOiq-15" value="" style="rounded=0;whiteSpace=wrap;html=1;glass=0;shadow=0;opacity=60;" parent="2i_cKFGTGKDReKxksOiq-50" vertex="1">
                    <mxGeometry x="-75.30275229357798" y="12" width="428.03669724770646" height="300" as="geometry"/>
                </mxCell>
                <mxCell id="2i_cKFGTGKDReKxksOiq-25" value="Finestra di caricamento" style="rounded=0;whiteSpace=wrap;html=1;shadow=0;glass=0;strokeColor=#00CC00;" parent="2i_cKFGTGKDReKxksOiq-50" vertex="1">
                    <mxGeometry x="9.908256880733946" y="52" width="257.6146788990826" height="200" as="geometry"/>
                </mxCell>
                <mxCell id="2i_cKFGTGKDReKxksOiq-26" value="2" style="ellipse;whiteSpace=wrap;html=1;aspect=fixed;fontSize=18;opacity=60;fillColor=#a20025;fontColor=#ffffff;strokeColor=#6F0000;" parent="1" vertex="1">
                    <mxGeometry x="448" y="416" width="25" height="25" as="geometry"/>
                </mxCell>
                <mxCell id="382nkdmMPTcBsGCsCdax-1" value="" style="group" parent="1" vertex="1" connectable="0">
                    <mxGeometry x="-196" y="32" width="436" height="302" as="geometry"/>
                </mxCell>
                <mxCell id="382nkdmMPTcBsGCsCdax-2" value="" style="rounded=0;whiteSpace=wrap;html=1;glass=0;shadow=0;container=0;" parent="382nkdmMPTcBsGCsCdax-1" vertex="1">
                    <mxGeometry width="436" height="302" as="geometry"/>
                </mxCell>
                <mxCell id="382nkdmMPTcBsGCsCdax-3" value="Carica" style="rounded=0;whiteSpace=wrap;html=1;container=0;" parent="382nkdmMPTcBsGCsCdax-1" vertex="1">
                    <mxGeometry x="225.75" y="264.33000000000004" width="90" height="30" as="geometry"/>
                </mxCell>
                <mxCell id="382nkdmMPTcBsGCsCdax-4" value="Applica" style="rounded=0;whiteSpace=wrap;html=1;container=0;" parent="382nkdmMPTcBsGCsCdax-1" vertex="1">
                    <mxGeometry x="324.75" y="14" width="90" height="30" as="geometry"/>
                </mxCell>
                <mxCell id="382nkdmMPTcBsGCsCdax-5" value="Info" style="rounded=0;whiteSpace=wrap;html=1;container=0;" parent="382nkdmMPTcBsGCsCdax-1" vertex="1">
                    <mxGeometry x="20" y="14" width="91.37" height="30" as="geometry"/>
                </mxCell>
                <mxCell id="382nkdmMPTcBsGCsCdax-6" value="&lt;font color=&quot;#6e6e6e&quot;&gt;Salva&lt;/font&gt;" style="rounded=0;whiteSpace=wrap;html=1;fontSize=11;opacity=50;container=0;" parent="382nkdmMPTcBsGCsCdax-1" vertex="1">
                    <mxGeometry x="326" y="264.3299999999999" width="90" height="30" as="geometry"/>
                </mxCell>
                <mxCell id="382nkdmMPTcBsGCsCdax-7" value="" style="group;rounded=1;" parent="382nkdmMPTcBsGCsCdax-1" vertex="1" connectable="0">
                    <mxGeometry x="122" y="14" width="188" height="30" as="geometry"/>
                </mxCell>
                <mxCell id="382nkdmMPTcBsGCsCdax-8" value="LISTA FUNZIONI" style="rounded=0;whiteSpace=wrap;html=1;container=0;" parent="382nkdmMPTcBsGCsCdax-7" vertex="1">
                    <mxGeometry width="188" height="30" as="geometry"/>
                </mxCell>
                <mxCell id="382nkdmMPTcBsGCsCdax-9" value="" style="triangle;whiteSpace=wrap;html=1;rotation=90;rounded=1;container=0;" parent="382nkdmMPTcBsGCsCdax-7" vertex="1">
                    <mxGeometry x="170.36828571428572" y="8.439999999999998" width="8.956857142857142" height="13.12" as="geometry"/>
                </mxCell>
                <mxCell id="382nkdmMPTcBsGCsCdax-10" value="Reset" style="rounded=0;whiteSpace=wrap;html=1;container=0;" parent="382nkdmMPTcBsGCsCdax-1" vertex="1">
                    <mxGeometry x="21.25" y="264.3299999999999" width="91.37" height="30" as="geometry"/>
                </mxCell>
                <mxCell id="382nkdmMPTcBsGCsCdax-11" value="Inverti" style="rounded=0;whiteSpace=wrap;html=1;container=0;" parent="382nkdmMPTcBsGCsCdax-1" vertex="1">
                    <mxGeometry x="123.25" y="264.33000000000015" width="90" height="30" as="geometry"/>
                </mxCell>
                <mxCell id="382nkdmMPTcBsGCsCdax-21" value="Nome CSV 2" style="rounded=0;whiteSpace=wrap;html=1;" parent="382nkdmMPTcBsGCsCdax-1" vertex="1">
                    <mxGeometry x="224" y="234" width="192" height="24" as="geometry"/>
                </mxCell>
                <mxCell id="382nkdmMPTcBsGCsCdax-20" value="Nome CSV 1" style="rounded=0;whiteSpace=wrap;html=1;" parent="382nkdmMPTcBsGCsCdax-1" vertex="1">
                    <mxGeometry x="20" y="234" width="192" height="24" as="geometry"/>
                </mxCell>
                <mxCell id="382nkdmMPTcBsGCsCdax-12" value="" style="group" parent="382nkdmMPTcBsGCsCdax-1" vertex="1" connectable="0">
                    <mxGeometry x="20" y="54" width="408.03834862385327" height="246" as="geometry"/>
                </mxCell>
                <mxCell id="382nkdmMPTcBsGCsCdax-13" value="PREVIEW DELLE PRIME &lt;br&gt;5 COLONNE" style="rounded=0;whiteSpace=wrap;html=1;container=0;" parent="382nkdmMPTcBsGCsCdax-12" vertex="1">
                    <mxGeometry width="395.99999999999994" height="172" as="geometry"/>
                </mxCell>
                <mxCell id="382nkdmMPTcBsGCsCdax-14" value="" style="group" parent="382nkdmMPTcBsGCsCdax-12" vertex="1" connectable="0">
                    <mxGeometry x="3.9599999999999995" y="146.70588235294116" width="113.52" height="25.294117647058822" as="geometry"/>
                </mxCell>
                <mxCell id="382nkdmMPTcBsGCsCdax-15" value="CSV 1" style="text;html=1;strokeColor=none;fillColor=none;align=center;verticalAlign=middle;whiteSpace=wrap;rounded=1;fontSize=11;container=0;" parent="382nkdmMPTcBsGCsCdax-14" vertex="1">
                    <mxGeometry y="6.323529411764706" width="65.99999999999999" height="12.647058823529411" as="geometry"/>
                </mxCell>
                <mxCell id="382nkdmMPTcBsGCsCdax-16" value="CSV 2" style="text;html=1;strokeColor=none;fillColor=none;align=center;verticalAlign=middle;whiteSpace=wrap;rounded=1;fontSize=11;container=0;" parent="382nkdmMPTcBsGCsCdax-14" vertex="1">
                    <mxGeometry x="56.76" y="6.323529411764706" width="56.76" height="12.647058823529411" as="geometry"/>
                </mxCell>
                <mxCell id="382nkdmMPTcBsGCsCdax-17" value="" style="endArrow=none;html=1;fontSize=11;entryX=1.001;entryY=0.856;entryDx=0;entryDy=0;entryPerimeter=0;" parent="382nkdmMPTcBsGCsCdax-14" target="382nkdmMPTcBsGCsCdax-13" edge="1">
                    <mxGeometry width="50" height="50" relative="1" as="geometry">
                        <mxPoint x="56.76" as="sourcePoint"/>
                        <mxPoint x="294.35999999999996" as="targetPoint"/>
                    </mxGeometry>
                </mxCell>
                <mxCell id="382nkdmMPTcBsGCsCdax-18" value="" style="endArrow=none;html=1;fontSize=11;" parent="382nkdmMPTcBsGCsCdax-14" edge="1">
                    <mxGeometry width="50" height="50" relative="1" as="geometry">
                        <mxPoint x="56.76" y="25.294117647058822" as="sourcePoint"/>
                        <mxPoint x="56.76" as="targetPoint"/>
                    </mxGeometry>
                </mxCell>
                <mxCell id="382nkdmMPTcBsGCsCdax-19" value="" style="endArrow=none;html=1;fontSize=11;" parent="382nkdmMPTcBsGCsCdax-14" edge="1">
                    <mxGeometry width="50" height="50" relative="1" as="geometry">
                        <mxPoint x="109.55999999999999" y="25.294117647058822" as="sourcePoint"/>
                        <mxPoint x="109.55999999999999" as="targetPoint"/>
                    </mxGeometry>
                </mxCell>
                <mxCell id="382nkdmMPTcBsGCsCdax-48" value="" style="rounded=0;whiteSpace=wrap;html=1;glass=0;shadow=0;opacity=60;" parent="382nkdmMPTcBsGCsCdax-12" vertex="1">
                    <mxGeometry x="-19.99834862385319" y="-54" width="428.03669724770646" height="300" as="geometry"/>
                </mxCell>
                <mxCell id="382nkdmMPTcBsGCsCdax-23" value="" style="rounded=0;whiteSpace=wrap;html=1;shadow=0;glass=0;strokeColor=#00CC00;" parent="382nkdmMPTcBsGCsCdax-12" vertex="1">
                    <mxGeometry x="69.19266055045875" y="-14" width="257.6146788990826" height="200" as="geometry"/>
                </mxCell>
                <mxCell id="382nkdmMPTcBsGCsCdax-50" value="Indietro" style="rounded=0;whiteSpace=wrap;html=1;container=0;" parent="382nkdmMPTcBsGCsCdax-12" vertex="1">
                    <mxGeometry x="148.33999999999997" y="146.70999999999992" width="91.37" height="30" as="geometry"/>
                </mxCell>
                <mxCell id="382nkdmMPTcBsGCsCdax-51" value="Descrizione della funzione" style="rounded=0;whiteSpace=wrap;html=1;" parent="382nkdmMPTcBsGCsCdax-12" vertex="1">
                    <mxGeometry x="80" y="32" width="236" height="102" as="geometry"/>
                </mxCell>
                <mxCell id="382nkdmMPTcBsGCsCdax-52" value="Titolo della funzione" style="rounded=0;whiteSpace=wrap;html=1;container=0;" parent="382nkdmMPTcBsGCsCdax-12" vertex="1">
                    <mxGeometry x="80" y="-6" width="236" height="30" as="geometry"/>
                </mxCell>
                <mxCell id="IW4g8JKvDsniSrIX1dA_-1" value="" style="group" parent="1" vertex="1" connectable="0">
                    <mxGeometry x="860" y="36" width="432" height="302" as="geometry"/>
                </mxCell>
                <mxCell id="IW4g8JKvDsniSrIX1dA_-2" value="" style="rounded=0;whiteSpace=wrap;html=1;glass=0;shadow=0;container=0;" parent="IW4g8JKvDsniSrIX1dA_-1" vertex="1">
                    <mxGeometry width="432" height="302" as="geometry"/>
                </mxCell>
                <mxCell id="IW4g8JKvDsniSrIX1dA_-3" value="LOAD CSV" style="rounded=0;whiteSpace=wrap;html=1;container=0;" parent="IW4g8JKvDsniSrIX1dA_-1" vertex="1">
                    <mxGeometry x="223.67889908256882" y="264.33000000000004" width="89.17431192660551" height="30" as="geometry"/>
                </mxCell>
                <mxCell id="IW4g8JKvDsniSrIX1dA_-4" value="APPLICA FUNZIONE" style="rounded=0;whiteSpace=wrap;html=1;container=0;" parent="IW4g8JKvDsniSrIX1dA_-1" vertex="1">
                    <mxGeometry x="321.7706422018349" y="14" width="89.17431192660551" height="30" as="geometry"/>
                </mxCell>
                <mxCell id="IW4g8JKvDsniSrIX1dA_-5" value="info" style="rounded=0;whiteSpace=wrap;html=1;container=0;" parent="IW4g8JKvDsniSrIX1dA_-1" vertex="1">
                    <mxGeometry x="19.816513761467892" y="14" width="90.53174311926607" height="30" as="geometry"/>
                </mxCell>
                <mxCell id="IW4g8JKvDsniSrIX1dA_-6" value="&lt;font color=&quot;#6e6e6e&quot;&gt;SAVE&lt;/font&gt;" style="rounded=0;whiteSpace=wrap;html=1;fontSize=11;opacity=50;container=0;" parent="IW4g8JKvDsniSrIX1dA_-1" vertex="1">
                    <mxGeometry x="323.00917431192664" y="264.3299999999999" width="89.17431192660551" height="30" as="geometry"/>
                </mxCell>
                <mxCell id="IW4g8JKvDsniSrIX1dA_-7" value="" style="group;rounded=1;" parent="IW4g8JKvDsniSrIX1dA_-1" vertex="1" connectable="0">
                    <mxGeometry x="120.88073394495413" y="14" width="186.27522935779817" height="30" as="geometry"/>
                </mxCell>
                <mxCell id="IW4g8JKvDsniSrIX1dA_-8" value="LISTA FUNZIONI" style="rounded=0;whiteSpace=wrap;html=1;container=0;" parent="IW4g8JKvDsniSrIX1dA_-7" vertex="1">
                    <mxGeometry width="186.27522935779817" height="30" as="geometry"/>
                </mxCell>
                <mxCell id="IW4g8JKvDsniSrIX1dA_-9" value="" style="triangle;whiteSpace=wrap;html=1;rotation=90;rounded=1;container=0;" parent="IW4g8JKvDsniSrIX1dA_-7" vertex="1">
                    <mxGeometry x="168.80527391874182" y="8.439999999999998" width="8.874684141546528" height="13.12" as="geometry"/>
                </mxCell>
                <mxCell id="IW4g8JKvDsniSrIX1dA_-10" value="RESET" style="rounded=0;whiteSpace=wrap;html=1;container=0;" parent="IW4g8JKvDsniSrIX1dA_-1" vertex="1">
                    <mxGeometry x="21.055045871559635" y="264.3299999999999" width="90.53174311926607" height="30" as="geometry"/>
                </mxCell>
                <mxCell id="IW4g8JKvDsniSrIX1dA_-11" value="INVERTI CSV" style="rounded=0;whiteSpace=wrap;html=1;container=0;" parent="IW4g8JKvDsniSrIX1dA_-1" vertex="1">
                    <mxGeometry x="122.11926605504588" y="264.33000000000015" width="89.17431192660551" height="30" as="geometry"/>
                </mxCell>
                <mxCell id="IW4g8JKvDsniSrIX1dA_-12" value="&lt;span style=&quot;white-space: pre;&quot;&gt;&#9;&lt;/span&gt;CSV 1: NOME CSV" style="rounded=0;whiteSpace=wrap;html=1;" parent="IW4g8JKvDsniSrIX1dA_-1" vertex="1">
                    <mxGeometry x="19.816513761467892" y="234" width="190.23853211009174" height="24" as="geometry"/>
                </mxCell>
                <mxCell id="IW4g8JKvDsniSrIX1dA_-13" value="&lt;span style=&quot;white-space: pre;&quot;&gt;&#9;&lt;/span&gt;CSV 2: NOME CSV" style="rounded=0;whiteSpace=wrap;html=1;" parent="IW4g8JKvDsniSrIX1dA_-1" vertex="1">
                    <mxGeometry x="221.94495412844037" y="234" width="190.23853211009174" height="24" as="geometry"/>
                </mxCell>
                <mxCell id="IW4g8JKvDsniSrIX1dA_-14" value="" style="group" parent="IW4g8JKvDsniSrIX1dA_-1" vertex="1" connectable="0">
                    <mxGeometry x="19.816513761467892" y="54" width="410.20183486238534" height="246" as="geometry"/>
                </mxCell>
                <mxCell id="IW4g8JKvDsniSrIX1dA_-15" value="PREVIEW DELLE PRIME &lt;br&gt;5 COLONNE" style="rounded=0;whiteSpace=wrap;html=1;container=0;" parent="IW4g8JKvDsniSrIX1dA_-14" vertex="1">
                    <mxGeometry width="392.36697247706417" height="172" as="geometry"/>
                </mxCell>
                <mxCell id="IW4g8JKvDsniSrIX1dA_-16" value="" style="group" parent="IW4g8JKvDsniSrIX1dA_-14" vertex="1" connectable="0">
                    <mxGeometry x="3.923669724770642" y="146.70588235294116" width="112.47853211009175" height="25.294117647058822" as="geometry"/>
                </mxCell>
                <mxCell id="IW4g8JKvDsniSrIX1dA_-17" value="CSV 1" style="text;html=1;strokeColor=none;fillColor=none;align=center;verticalAlign=middle;whiteSpace=wrap;rounded=1;fontSize=11;container=0;" parent="IW4g8JKvDsniSrIX1dA_-16" vertex="1">
                    <mxGeometry y="6.323529411764706" width="65.39449541284402" height="12.647058823529411" as="geometry"/>
                </mxCell>
                <mxCell id="IW4g8JKvDsniSrIX1dA_-18" value="CSV 2" style="text;html=1;strokeColor=none;fillColor=none;align=center;verticalAlign=middle;whiteSpace=wrap;rounded=1;fontSize=11;container=0;" parent="IW4g8JKvDsniSrIX1dA_-16" vertex="1">
                    <mxGeometry x="56.239266055045874" y="6.323529411764706" width="56.239266055045874" height="12.647058823529411" as="geometry"/>
                </mxCell>
                <mxCell id="IW4g8JKvDsniSrIX1dA_-19" value="" style="endArrow=none;html=1;fontSize=11;entryX=1.001;entryY=0.856;entryDx=0;entryDy=0;entryPerimeter=0;" parent="IW4g8JKvDsniSrIX1dA_-16" target="IW4g8JKvDsniSrIX1dA_-15" edge="1">
                    <mxGeometry width="50" height="50" relative="1" as="geometry">
                        <mxPoint x="56.239266055045874" as="sourcePoint"/>
                        <mxPoint x="291.6594495412844" as="targetPoint"/>
                    </mxGeometry>
                </mxCell>
                <mxCell id="IW4g8JKvDsniSrIX1dA_-20" value="" style="endArrow=none;html=1;fontSize=11;" parent="IW4g8JKvDsniSrIX1dA_-16" edge="1">
                    <mxGeometry width="50" height="50" relative="1" as="geometry">
                        <mxPoint x="56.239266055045874" y="25.294117647058822" as="sourcePoint"/>
                        <mxPoint x="56.239266055045874" as="targetPoint"/>
                    </mxGeometry>
                </mxCell>
                <mxCell id="IW4g8JKvDsniSrIX1dA_-21" value="" style="endArrow=none;html=1;fontSize=11;" parent="IW4g8JKvDsniSrIX1dA_-16" edge="1">
                    <mxGeometry width="50" height="50" relative="1" as="geometry">
                        <mxPoint x="108.5548623853211" y="25.294117647058822" as="sourcePoint"/>
                        <mxPoint x="108.5548623853211" as="targetPoint"/>
                    </mxGeometry>
                </mxCell>
                <mxCell id="IW4g8JKvDsniSrIX1dA_-22" value="" style="group" parent="IW4g8JKvDsniSrIX1dA_-14" vertex="1" connectable="0">
                    <mxGeometry x="57.467889908256886" y="-66" width="352.73394495412845" height="312" as="geometry"/>
                </mxCell>
                <mxCell id="IW4g8JKvDsniSrIX1dA_-23" value="" style="rounded=0;whiteSpace=wrap;html=1;glass=0;shadow=0;opacity=60;" parent="IW4g8JKvDsniSrIX1dA_-22" vertex="1">
                    <mxGeometry x="-75.30275229357798" y="12" width="428.03669724770646" height="300" as="geometry"/>
                </mxCell>
                <mxCell id="IW4g8JKvDsniSrIX1dA_-24" value="Finestra dei parametri della funzione" style="rounded=0;whiteSpace=wrap;html=1;shadow=0;glass=0;strokeColor=#00CC00;" parent="IW4g8JKvDsniSrIX1dA_-22" vertex="1">
                    <mxGeometry x="9.908256880733946" y="52" width="257.6146788990826" height="200" as="geometry"/>
                </mxCell>
                <mxCell id="IW4g8JKvDsniSrIX1dA_-25" value="4" style="ellipse;whiteSpace=wrap;html=1;aspect=fixed;fontSize=18;opacity=60;fillColor=#a20025;fontColor=#ffffff;strokeColor=#6F0000;" parent="1" vertex="1">
                    <mxGeometry x="856" y="8" width="25" height="25" as="geometry"/>
                </mxCell>
                <mxCell id="ovCg0G-jqVNITn4jlDyE-2" value="" style="group" parent="1" vertex="1" connectable="0">
                    <mxGeometry x="-200" y="396" width="436" height="302" as="geometry"/>
                </mxCell>
                <mxCell id="ovCg0G-jqVNITn4jlDyE-3" value="" style="rounded=0;whiteSpace=wrap;html=1;glass=0;shadow=0;container=0;" parent="ovCg0G-jqVNITn4jlDyE-2" vertex="1">
                    <mxGeometry width="436" height="302" as="geometry"/>
                </mxCell>
                <mxCell id="ovCg0G-jqVNITn4jlDyE-4" value="Carica" style="rounded=0;whiteSpace=wrap;html=1;container=0;" parent="ovCg0G-jqVNITn4jlDyE-2" vertex="1">
                    <mxGeometry x="225.75" y="264.33000000000004" width="90" height="30" as="geometry"/>
                </mxCell>
                <mxCell id="ovCg0G-jqVNITn4jlDyE-5" value="Applica" style="rounded=0;whiteSpace=wrap;html=1;container=0;" parent="ovCg0G-jqVNITn4jlDyE-2" vertex="1">
                    <mxGeometry x="324.75" y="14" width="90" height="30" as="geometry"/>
                </mxCell>
                <mxCell id="ovCg0G-jqVNITn4jlDyE-6" value="Info" style="rounded=0;whiteSpace=wrap;html=1;container=0;" parent="ovCg0G-jqVNITn4jlDyE-2" vertex="1">
                    <mxGeometry x="20" y="14" width="91.37" height="30" as="geometry"/>
                </mxCell>
                <mxCell id="ovCg0G-jqVNITn4jlDyE-7" value="&lt;font color=&quot;#6e6e6e&quot;&gt;Salva&lt;/font&gt;" style="rounded=0;whiteSpace=wrap;html=1;fontSize=11;opacity=50;container=0;" parent="ovCg0G-jqVNITn4jlDyE-2" vertex="1">
                    <mxGeometry x="326" y="264.3299999999999" width="90" height="30" as="geometry"/>
                </mxCell>
                <mxCell id="ovCg0G-jqVNITn4jlDyE-8" value="" style="group;rounded=1;" parent="ovCg0G-jqVNITn4jlDyE-2" vertex="1" connectable="0">
                    <mxGeometry x="122" y="14" width="188" height="30" as="geometry"/>
                </mxCell>
                <mxCell id="ovCg0G-jqVNITn4jlDyE-9" value="LISTA FUNZIONI" style="rounded=0;whiteSpace=wrap;html=1;container=0;" parent="ovCg0G-jqVNITn4jlDyE-8" vertex="1">
                    <mxGeometry width="188" height="30" as="geometry"/>
                </mxCell>
                <mxCell id="ovCg0G-jqVNITn4jlDyE-10" value="" style="triangle;whiteSpace=wrap;html=1;rotation=90;rounded=1;container=0;" parent="ovCg0G-jqVNITn4jlDyE-8" vertex="1">
                    <mxGeometry x="170.36828571428572" y="8.439999999999998" width="8.956857142857142" height="13.12" as="geometry"/>
                </mxCell>
                <mxCell id="ovCg0G-jqVNITn4jlDyE-11" value="Reset" style="rounded=0;whiteSpace=wrap;html=1;container=0;" parent="ovCg0G-jqVNITn4jlDyE-2" vertex="1">
                    <mxGeometry x="21.25" y="264.3299999999999" width="91.37" height="30" as="geometry"/>
                </mxCell>
                <mxCell id="ovCg0G-jqVNITn4jlDyE-12" value="Inverti" style="rounded=0;whiteSpace=wrap;html=1;container=0;" parent="ovCg0G-jqVNITn4jlDyE-2" vertex="1">
                    <mxGeometry x="123.25" y="264.33000000000015" width="90" height="30" as="geometry"/>
                </mxCell>
                <mxCell id="ovCg0G-jqVNITn4jlDyE-13" value="" style="group" parent="ovCg0G-jqVNITn4jlDyE-2" vertex="1" connectable="0">
                    <mxGeometry x="20" y="54" width="396" height="172" as="geometry"/>
                </mxCell>
                <mxCell id="ovCg0G-jqVNITn4jlDyE-14" value="PREVIEW DELLE PRIME &lt;br&gt;5 COLONNE" style="rounded=0;whiteSpace=wrap;html=1;container=0;" parent="ovCg0G-jqVNITn4jlDyE-13" vertex="1">
                    <mxGeometry width="395.99999999999994" height="172" as="geometry"/>
                </mxCell>
                <mxCell id="ovCg0G-jqVNITn4jlDyE-15" value="" style="group" parent="ovCg0G-jqVNITn4jlDyE-13" vertex="1" connectable="0">
                    <mxGeometry x="3.9599999999999995" y="146.70588235294116" width="113.52" height="25.294117647058822" as="geometry"/>
                </mxCell>
                <mxCell id="ovCg0G-jqVNITn4jlDyE-16" value="CSV 1" style="text;html=1;strokeColor=none;fillColor=none;align=center;verticalAlign=middle;whiteSpace=wrap;rounded=1;fontSize=11;container=0;" parent="ovCg0G-jqVNITn4jlDyE-15" vertex="1">
                    <mxGeometry y="6.323529411764706" width="65.99999999999999" height="12.647058823529411" as="geometry"/>
                </mxCell>
                <mxCell id="ovCg0G-jqVNITn4jlDyE-17" value="CSV 2" style="text;html=1;strokeColor=none;fillColor=none;align=center;verticalAlign=middle;whiteSpace=wrap;rounded=1;fontSize=11;container=0;" parent="ovCg0G-jqVNITn4jlDyE-15" vertex="1">
                    <mxGeometry x="56.76" y="6.323529411764706" width="56.76" height="12.647058823529411" as="geometry"/>
                </mxCell>
                <mxCell id="ovCg0G-jqVNITn4jlDyE-18" value="" style="endArrow=none;html=1;fontSize=11;entryX=1.001;entryY=0.856;entryDx=0;entryDy=0;entryPerimeter=0;" parent="ovCg0G-jqVNITn4jlDyE-15" target="ovCg0G-jqVNITn4jlDyE-14" edge="1">
                    <mxGeometry width="50" height="50" relative="1" as="geometry">
                        <mxPoint x="56.76" as="sourcePoint"/>
                        <mxPoint x="294.35999999999996" as="targetPoint"/>
                    </mxGeometry>
                </mxCell>
                <mxCell id="ovCg0G-jqVNITn4jlDyE-19" value="" style="endArrow=none;html=1;fontSize=11;" parent="ovCg0G-jqVNITn4jlDyE-15" edge="1">
                    <mxGeometry width="50" height="50" relative="1" as="geometry">
                        <mxPoint x="56.76" y="25.294117647058822" as="sourcePoint"/>
                        <mxPoint x="56.76" as="targetPoint"/>
                    </mxGeometry>
                </mxCell>
                <mxCell id="ovCg0G-jqVNITn4jlDyE-20" value="" style="endArrow=none;html=1;fontSize=11;" parent="ovCg0G-jqVNITn4jlDyE-15" edge="1">
                    <mxGeometry width="50" height="50" relative="1" as="geometry">
                        <mxPoint x="109.55999999999999" y="25.294117647058822" as="sourcePoint"/>
                        <mxPoint x="109.55999999999999" as="targetPoint"/>
                    </mxGeometry>
                </mxCell>
                <mxCell id="ovCg0G-jqVNITn4jlDyE-21" value="Nome CSV 1: Lampone" style="rounded=0;whiteSpace=wrap;html=1;strokeColor=#00CC00;" parent="ovCg0G-jqVNITn4jlDyE-2" vertex="1">
                    <mxGeometry x="20" y="234" width="192" height="24" as="geometry"/>
                </mxCell>
                <mxCell id="ovCg0G-jqVNITn4jlDyE-22" value="Nome CSV 2: Banana" style="rounded=0;whiteSpace=wrap;html=1;strokeColor=#00CC00;" parent="ovCg0G-jqVNITn4jlDyE-2" vertex="1">
                    <mxGeometry x="224" y="234" width="192" height="24" as="geometry"/>
                </mxCell>
                <mxCell id="DDXYG0fx3qnnzPkrQEeU-2" value="" style="group" parent="1" vertex="1" connectable="0">
                    <mxGeometry x="1416" y="36" width="432" height="302" as="geometry"/>
                </mxCell>
                <mxCell id="DDXYG0fx3qnnzPkrQEeU-3" value="" style="rounded=0;whiteSpace=wrap;html=1;glass=0;shadow=0;container=0;" parent="DDXYG0fx3qnnzPkrQEeU-2" vertex="1">
                    <mxGeometry width="432" height="302" as="geometry"/>
                </mxCell>
                <mxCell id="DDXYG0fx3qnnzPkrQEeU-4" value="LOAD CSV" style="rounded=0;whiteSpace=wrap;html=1;container=0;" parent="DDXYG0fx3qnnzPkrQEeU-2" vertex="1">
                    <mxGeometry x="223.67889908256882" y="264.33000000000004" width="89.17431192660551" height="30" as="geometry"/>
                </mxCell>
                <mxCell id="DDXYG0fx3qnnzPkrQEeU-5" value="APPLICA FUNZIONE" style="rounded=0;whiteSpace=wrap;html=1;container=0;" parent="DDXYG0fx3qnnzPkrQEeU-2" vertex="1">
                    <mxGeometry x="321.7706422018349" y="14" width="89.17431192660551" height="30" as="geometry"/>
                </mxCell>
                <mxCell id="DDXYG0fx3qnnzPkrQEeU-6" value="info" style="rounded=0;whiteSpace=wrap;html=1;container=0;" parent="DDXYG0fx3qnnzPkrQEeU-2" vertex="1">
                    <mxGeometry x="19.816513761467892" y="14" width="90.53174311926607" height="30" as="geometry"/>
                </mxCell>
                <mxCell id="DDXYG0fx3qnnzPkrQEeU-7" value="&lt;font color=&quot;#6e6e6e&quot;&gt;SAVE&lt;/font&gt;" style="rounded=0;whiteSpace=wrap;html=1;fontSize=11;opacity=50;container=0;" parent="DDXYG0fx3qnnzPkrQEeU-2" vertex="1">
                    <mxGeometry x="323.00917431192664" y="264.3299999999999" width="89.17431192660551" height="30" as="geometry"/>
                </mxCell>
                <mxCell id="DDXYG0fx3qnnzPkrQEeU-8" value="" style="group;rounded=1;" parent="DDXYG0fx3qnnzPkrQEeU-2" vertex="1" connectable="0">
                    <mxGeometry x="120.88073394495413" y="14" width="186.27522935779817" height="30" as="geometry"/>
                </mxCell>
                <mxCell id="DDXYG0fx3qnnzPkrQEeU-9" value="LISTA FUNZIONI" style="rounded=0;whiteSpace=wrap;html=1;container=0;" parent="DDXYG0fx3qnnzPkrQEeU-8" vertex="1">
                    <mxGeometry width="186.27522935779817" height="30" as="geometry"/>
                </mxCell>
                <mxCell id="DDXYG0fx3qnnzPkrQEeU-10" value="" style="triangle;whiteSpace=wrap;html=1;rotation=90;rounded=1;container=0;" parent="DDXYG0fx3qnnzPkrQEeU-8" vertex="1">
                    <mxGeometry x="168.80527391874182" y="8.439999999999998" width="8.874684141546528" height="13.12" as="geometry"/>
                </mxCell>
                <mxCell id="DDXYG0fx3qnnzPkrQEeU-11" value="RESET" style="rounded=0;whiteSpace=wrap;html=1;container=0;" parent="DDXYG0fx3qnnzPkrQEeU-2" vertex="1">
                    <mxGeometry x="21.055045871559635" y="264.3299999999999" width="90.53174311926607" height="30" as="geometry"/>
                </mxCell>
                <mxCell id="DDXYG0fx3qnnzPkrQEeU-12" value="INVERTI CSV" style="rounded=0;whiteSpace=wrap;html=1;container=0;" parent="DDXYG0fx3qnnzPkrQEeU-2" vertex="1">
                    <mxGeometry x="122.11926605504588" y="264.33000000000015" width="89.17431192660551" height="30" as="geometry"/>
                </mxCell>
                <mxCell id="DDXYG0fx3qnnzPkrQEeU-13" value="&lt;span style=&quot;white-space: pre;&quot;&gt;&#9;&lt;/span&gt;CSV 1: NOME CSV" style="rounded=0;whiteSpace=wrap;html=1;" parent="DDXYG0fx3qnnzPkrQEeU-2" vertex="1">
                    <mxGeometry x="19.816513761467892" y="234" width="190.23853211009174" height="24" as="geometry"/>
                </mxCell>
                <mxCell id="DDXYG0fx3qnnzPkrQEeU-14" value="&lt;span style=&quot;white-space: pre;&quot;&gt;&#9;&lt;/span&gt;CSV 2: NOME CSV" style="rounded=0;whiteSpace=wrap;html=1;" parent="DDXYG0fx3qnnzPkrQEeU-2" vertex="1">
                    <mxGeometry x="221.94495412844037" y="234" width="190.23853211009174" height="24" as="geometry"/>
                </mxCell>
                <mxCell id="DDXYG0fx3qnnzPkrQEeU-15" value="" style="group" parent="DDXYG0fx3qnnzPkrQEeU-2" vertex="1" connectable="0">
                    <mxGeometry x="19.816513761467892" y="54" width="410.20183486238534" height="246" as="geometry"/>
                </mxCell>
                <mxCell id="DDXYG0fx3qnnzPkrQEeU-16" value="PREVIEW DELLE PRIME &lt;br&gt;5 COLONNE" style="rounded=0;whiteSpace=wrap;html=1;container=0;" parent="DDXYG0fx3qnnzPkrQEeU-15" vertex="1">
                    <mxGeometry width="392.36697247706417" height="172" as="geometry"/>
                </mxCell>
                <mxCell id="DDXYG0fx3qnnzPkrQEeU-17" value="" style="group" parent="DDXYG0fx3qnnzPkrQEeU-15" vertex="1" connectable="0">
                    <mxGeometry x="3.923669724770642" y="146.70588235294116" width="112.47853211009175" height="25.294117647058822" as="geometry"/>
                </mxCell>
                <mxCell id="DDXYG0fx3qnnzPkrQEeU-18" value="CSV 1" style="text;html=1;strokeColor=none;fillColor=none;align=center;verticalAlign=middle;whiteSpace=wrap;rounded=1;fontSize=11;container=0;" parent="DDXYG0fx3qnnzPkrQEeU-17" vertex="1">
                    <mxGeometry y="6.323529411764706" width="65.39449541284402" height="12.647058823529411" as="geometry"/>
                </mxCell>
                <mxCell id="DDXYG0fx3qnnzPkrQEeU-19" value="CSV 2" style="text;html=1;strokeColor=none;fillColor=none;align=center;verticalAlign=middle;whiteSpace=wrap;rounded=1;fontSize=11;container=0;" parent="DDXYG0fx3qnnzPkrQEeU-17" vertex="1">
                    <mxGeometry x="56.239266055045874" y="6.323529411764706" width="56.239266055045874" height="12.647058823529411" as="geometry"/>
                </mxCell>
                <mxCell id="DDXYG0fx3qnnzPkrQEeU-20" value="" style="endArrow=none;html=1;fontSize=11;entryX=1.001;entryY=0.856;entryDx=0;entryDy=0;entryPerimeter=0;" parent="DDXYG0fx3qnnzPkrQEeU-17" target="DDXYG0fx3qnnzPkrQEeU-16" edge="1">
                    <mxGeometry width="50" height="50" relative="1" as="geometry">
                        <mxPoint x="56.239266055045874" as="sourcePoint"/>
                        <mxPoint x="291.6594495412844" as="targetPoint"/>
                    </mxGeometry>
                </mxCell>
                <mxCell id="DDXYG0fx3qnnzPkrQEeU-21" value="" style="endArrow=none;html=1;fontSize=11;" parent="DDXYG0fx3qnnzPkrQEeU-17" edge="1">
                    <mxGeometry width="50" height="50" relative="1" as="geometry">
                        <mxPoint x="56.239266055045874" y="25.294117647058822" as="sourcePoint"/>
                        <mxPoint x="56.239266055045874" as="targetPoint"/>
                    </mxGeometry>
                </mxCell>
                <mxCell id="DDXYG0fx3qnnzPkrQEeU-22" value="" style="endArrow=none;html=1;fontSize=11;" parent="DDXYG0fx3qnnzPkrQEeU-17" edge="1">
                    <mxGeometry width="50" height="50" relative="1" as="geometry">
                        <mxPoint x="108.5548623853211" y="25.294117647058822" as="sourcePoint"/>
                        <mxPoint x="108.5548623853211" as="targetPoint"/>
                    </mxGeometry>
                </mxCell>
                <mxCell id="DDXYG0fx3qnnzPkrQEeU-23" value="" style="group" parent="DDXYG0fx3qnnzPkrQEeU-15" vertex="1" connectable="0">
                    <mxGeometry x="57.467889908256886" y="-66" width="352.73394495412845" height="312" as="geometry"/>
                </mxCell>
                <mxCell id="DDXYG0fx3qnnzPkrQEeU-24" value="" style="rounded=0;whiteSpace=wrap;html=1;glass=0;shadow=0;opacity=60;" parent="DDXYG0fx3qnnzPkrQEeU-23" vertex="1">
                    <mxGeometry x="-75.30275229357798" y="12" width="428.03669724770646" height="300" as="geometry"/>
                </mxCell>
                <mxCell id="DDXYG0fx3qnnzPkrQEeU-25" value="Attesa" style="rounded=0;whiteSpace=wrap;html=1;shadow=0;glass=0;strokeColor=#00CC00;" parent="DDXYG0fx3qnnzPkrQEeU-23" vertex="1">
                    <mxGeometry x="42.72" y="120" width="192" height="84" as="geometry"/>
                </mxCell>
                <mxCell id="DDXYG0fx3qnnzPkrQEeU-26" value="5" style="ellipse;whiteSpace=wrap;html=1;aspect=fixed;fontSize=18;opacity=60;fillColor=#a20025;fontColor=#ffffff;strokeColor=#6F0000;" parent="1" vertex="1">
                    <mxGeometry x="1412" y="8" width="25" height="25" as="geometry"/>
                </mxCell>
                <mxCell id="DDXYG0fx3qnnzPkrQEeU-27" value="" style="endArrow=classic;html=1;strokeWidth=2;curved=1;exitX=0.999;exitY=0.515;exitDx=0;exitDy=0;exitPerimeter=0;entryX=-0.001;entryY=0.51;entryDx=0;entryDy=0;entryPerimeter=0;fillColor=#e51400;strokeColor=#B20000;sketch=1;curveFitting=1;jiggle=2;" parent="1" source="IW4g8JKvDsniSrIX1dA_-23" target="DDXYG0fx3qnnzPkrQEeU-3" edge="1">
                    <mxGeometry width="50" height="50" relative="1" as="geometry">
                        <mxPoint x="1364" y="252" as="sourcePoint"/>
                        <mxPoint x="1468" y="195" as="targetPoint"/>
                    </mxGeometry>
                </mxCell>
                <mxCell id="VkCs9N56I_b7A1iho_sI-1" value="" style="group" parent="1" vertex="1" connectable="0">
                    <mxGeometry x="1428" y="396" width="436" height="302" as="geometry"/>
                </mxCell>
                <mxCell id="VkCs9N56I_b7A1iho_sI-2" value="" style="rounded=0;whiteSpace=wrap;html=1;glass=0;shadow=0;container=0;" parent="VkCs9N56I_b7A1iho_sI-1" vertex="1">
                    <mxGeometry width="436" height="302" as="geometry"/>
                </mxCell>
                <mxCell id="VkCs9N56I_b7A1iho_sI-3" value="Carica" style="rounded=0;whiteSpace=wrap;html=1;container=0;" parent="VkCs9N56I_b7A1iho_sI-1" vertex="1">
                    <mxGeometry x="225.75" y="264.33000000000004" width="90" height="30" as="geometry"/>
                </mxCell>
                <mxCell id="VkCs9N56I_b7A1iho_sI-4" value="Applica" style="rounded=0;whiteSpace=wrap;html=1;container=0;" parent="VkCs9N56I_b7A1iho_sI-1" vertex="1">
                    <mxGeometry x="324.75" y="14" width="90" height="30" as="geometry"/>
                </mxCell>
                <mxCell id="VkCs9N56I_b7A1iho_sI-5" value="Info" style="rounded=0;whiteSpace=wrap;html=1;container=0;" parent="VkCs9N56I_b7A1iho_sI-1" vertex="1">
                    <mxGeometry x="20" y="14" width="91.37" height="30" as="geometry"/>
                </mxCell>
                <mxCell id="VkCs9N56I_b7A1iho_sI-7" value="" style="group;rounded=1;" parent="VkCs9N56I_b7A1iho_sI-1" vertex="1" connectable="0">
                    <mxGeometry x="122" y="14" width="188" height="30" as="geometry"/>
                </mxCell>
                <mxCell id="VkCs9N56I_b7A1iho_sI-8" value="LISTA FUNZIONI" style="rounded=0;whiteSpace=wrap;html=1;container=0;" parent="VkCs9N56I_b7A1iho_sI-7" vertex="1">
                    <mxGeometry width="188" height="30" as="geometry"/>
                </mxCell>
                <mxCell id="VkCs9N56I_b7A1iho_sI-9" value="" style="triangle;whiteSpace=wrap;html=1;rotation=90;rounded=1;container=0;" parent="VkCs9N56I_b7A1iho_sI-7" vertex="1">
                    <mxGeometry x="170.36828571428572" y="8.439999999999998" width="8.956857142857142" height="13.12" as="geometry"/>
                </mxCell>
                <mxCell id="VkCs9N56I_b7A1iho_sI-6" value="&lt;font color=&quot;#ffffff&quot;&gt;Salva&lt;/font&gt;" style="rounded=0;whiteSpace=wrap;html=1;fontSize=11;container=0;strokeColor=#00CC00;" parent="VkCs9N56I_b7A1iho_sI-1" vertex="1">
                    <mxGeometry x="326" y="264.3299999999999" width="90" height="30" as="geometry"/>
                </mxCell>
                <mxCell id="VkCs9N56I_b7A1iho_sI-10" value="Reset" style="rounded=0;whiteSpace=wrap;html=1;container=0;" parent="VkCs9N56I_b7A1iho_sI-1" vertex="1">
                    <mxGeometry x="21.25" y="264.3299999999999" width="91.37" height="30" as="geometry"/>
                </mxCell>
                <mxCell id="VkCs9N56I_b7A1iho_sI-11" value="Inverti" style="rounded=0;whiteSpace=wrap;html=1;container=0;" parent="VkCs9N56I_b7A1iho_sI-1" vertex="1">
                    <mxGeometry x="123.25" y="264.33000000000015" width="90" height="30" as="geometry"/>
                </mxCell>
                <mxCell id="VkCs9N56I_b7A1iho_sI-12" value="" style="group" parent="VkCs9N56I_b7A1iho_sI-1" vertex="1" connectable="0">
                    <mxGeometry x="20" y="54" width="396" height="172" as="geometry"/>
                </mxCell>
                <mxCell id="VkCs9N56I_b7A1iho_sI-13" value="PREVIEW DELLE PRIME &lt;br&gt;5 COLONNE" style="rounded=0;whiteSpace=wrap;html=1;container=0;" parent="VkCs9N56I_b7A1iho_sI-12" vertex="1">
                    <mxGeometry width="395.99999999999994" height="172" as="geometry"/>
                </mxCell>
                <mxCell id="VkCs9N56I_b7A1iho_sI-14" value="" style="group" parent="VkCs9N56I_b7A1iho_sI-12" vertex="1" connectable="0">
                    <mxGeometry x="3.9599999999999995" y="146.70588235294116" width="113.52" height="25.294117647058822" as="geometry"/>
                </mxCell>
                <mxCell id="VkCs9N56I_b7A1iho_sI-15" value="CSV 1" style="text;html=1;strokeColor=none;fillColor=none;align=center;verticalAlign=middle;whiteSpace=wrap;rounded=1;fontSize=11;container=0;" parent="VkCs9N56I_b7A1iho_sI-14" vertex="1">
                    <mxGeometry y="6.323529411764706" width="65.99999999999999" height="12.647058823529411" as="geometry"/>
                </mxCell>
                <mxCell id="VkCs9N56I_b7A1iho_sI-16" value="CSV 2" style="text;html=1;strokeColor=none;fillColor=none;align=center;verticalAlign=middle;whiteSpace=wrap;rounded=1;fontSize=11;container=0;" parent="VkCs9N56I_b7A1iho_sI-14" vertex="1">
                    <mxGeometry x="56.76" y="6.323529411764706" width="56.76" height="12.647058823529411" as="geometry"/>
                </mxCell>
                <mxCell id="VkCs9N56I_b7A1iho_sI-17" value="" style="endArrow=none;html=1;fontSize=11;entryX=1.001;entryY=0.856;entryDx=0;entryDy=0;entryPerimeter=0;" parent="VkCs9N56I_b7A1iho_sI-14" target="VkCs9N56I_b7A1iho_sI-13" edge="1">
                    <mxGeometry width="50" height="50" relative="1" as="geometry">
                        <mxPoint x="56.76" as="sourcePoint"/>
                        <mxPoint x="294.35999999999996" as="targetPoint"/>
                    </mxGeometry>
                </mxCell>
                <mxCell id="VkCs9N56I_b7A1iho_sI-18" value="" style="endArrow=none;html=1;fontSize=11;" parent="VkCs9N56I_b7A1iho_sI-14" edge="1">
                    <mxGeometry width="50" height="50" relative="1" as="geometry">
                        <mxPoint x="56.76" y="25.294117647058822" as="sourcePoint"/>
                        <mxPoint x="56.76" as="targetPoint"/>
                    </mxGeometry>
                </mxCell>
                <mxCell id="VkCs9N56I_b7A1iho_sI-19" value="" style="endArrow=none;html=1;fontSize=11;" parent="VkCs9N56I_b7A1iho_sI-14" edge="1">
                    <mxGeometry width="50" height="50" relative="1" as="geometry">
                        <mxPoint x="109.55999999999999" y="25.294117647058822" as="sourcePoint"/>
                        <mxPoint x="109.55999999999999" as="targetPoint"/>
                    </mxGeometry>
                </mxCell>
                <mxCell id="VkCs9N56I_b7A1iho_sI-20" value="Nome CSV 1: Banana" style="rounded=0;whiteSpace=wrap;html=1;" parent="VkCs9N56I_b7A1iho_sI-1" vertex="1">
                    <mxGeometry x="20" y="234" width="192" height="24" as="geometry"/>
                </mxCell>
                <mxCell id="VkCs9N56I_b7A1iho_sI-21" value="Nome CSV 2: Lampone" style="rounded=0;whiteSpace=wrap;html=1;" parent="VkCs9N56I_b7A1iho_sI-1" vertex="1">
                    <mxGeometry x="224" y="234" width="192" height="24" as="geometry"/>
                </mxCell>
                <mxCell id="CQJjUcAJac10RtDXfofx-1" value="" style="endArrow=classic;html=1;strokeWidth=2;fontColor=#FFFFFF;curved=1;exitX=1.005;exitY=0.427;exitDx=0;exitDy=0;entryX=1;entryY=0.5;entryDx=0;entryDy=0;exitPerimeter=0;fillColor=#e51400;strokeColor=#B20000;sketch=1;curveFitting=1;jiggle=2;" parent="1" source="DDXYG0fx3qnnzPkrQEeU-24" target="VkCs9N56I_b7A1iho_sI-6" edge="1">
                    <mxGeometry width="50" height="50" relative="1" as="geometry">
                        <mxPoint x="2048" y="314" as="sourcePoint"/>
                        <mxPoint x="2016" y="524" as="targetPoint"/>
                        <Array as="points">
                            <mxPoint x="1912" y="156"/>
                            <mxPoint x="1912" y="484"/>
                            <mxPoint x="1900" y="684"/>
                        </Array>
                    </mxGeometry>
                </mxCell>
                <mxCell id="SEFOXtMstA-acLcAuNlk-26" value="&lt;font style=&quot;font-size: 15px;&quot;&gt;diventa &lt;br style=&quot;font-size: 15px;&quot;&gt;disponibile&lt;/font&gt;" style="edgeLabel;html=1;align=center;verticalAlign=middle;resizable=0;points=[];fontColor=#FFFFFF;labelBackgroundColor=#CC0000;labelBorderColor=default;fontSize=15;" parent="CQJjUcAJac10RtDXfofx-1" vertex="1" connectable="0">
                    <mxGeometry x="-0.02" y="1" relative="1" as="geometry">
                        <mxPoint as="offset"/>
                    </mxGeometry>
                </mxCell>
                <mxCell id="Xx6fClMvF3adJYa_DgLy-1" value="" style="group" parent="1" vertex="1" connectable="0">
                    <mxGeometry x="920" y="448" width="432" height="302" as="geometry"/>
                </mxCell>
                <mxCell id="Xx6fClMvF3adJYa_DgLy-2" value="" style="rounded=0;whiteSpace=wrap;html=1;glass=0;shadow=0;container=0;" parent="Xx6fClMvF3adJYa_DgLy-1" vertex="1">
                    <mxGeometry width="432" height="302" as="geometry"/>
                </mxCell>
                <mxCell id="Xx6fClMvF3adJYa_DgLy-3" value="LOAD CSV" style="rounded=0;whiteSpace=wrap;html=1;container=0;" parent="Xx6fClMvF3adJYa_DgLy-1" vertex="1">
                    <mxGeometry x="223.67889908256882" y="264.33000000000004" width="89.17431192660551" height="30" as="geometry"/>
                </mxCell>
                <mxCell id="Xx6fClMvF3adJYa_DgLy-4" value="APPLICA FUNZIONE" style="rounded=0;whiteSpace=wrap;html=1;container=0;" parent="Xx6fClMvF3adJYa_DgLy-1" vertex="1">
                    <mxGeometry x="321.7706422018349" y="14" width="89.17431192660551" height="30" as="geometry"/>
                </mxCell>
                <mxCell id="Xx6fClMvF3adJYa_DgLy-5" value="info" style="rounded=0;whiteSpace=wrap;html=1;container=0;" parent="Xx6fClMvF3adJYa_DgLy-1" vertex="1">
                    <mxGeometry x="19.816513761467892" y="14" width="90.53174311926607" height="30" as="geometry"/>
                </mxCell>
                <mxCell id="Xx6fClMvF3adJYa_DgLy-6" value="&lt;font color=&quot;#6e6e6e&quot;&gt;SAVE&lt;/font&gt;" style="rounded=0;whiteSpace=wrap;html=1;fontSize=11;opacity=50;container=0;" parent="Xx6fClMvF3adJYa_DgLy-1" vertex="1">
                    <mxGeometry x="323.00917431192664" y="264.3299999999999" width="89.17431192660551" height="30" as="geometry"/>
                </mxCell>
                <mxCell id="Xx6fClMvF3adJYa_DgLy-7" value="" style="group;rounded=1;" parent="Xx6fClMvF3adJYa_DgLy-1" vertex="1" connectable="0">
                    <mxGeometry x="120.88073394495413" y="14" width="186.27522935779817" height="30" as="geometry"/>
                </mxCell>
                <mxCell id="Xx6fClMvF3adJYa_DgLy-8" value="LISTA FUNZIONI" style="rounded=0;whiteSpace=wrap;html=1;container=0;" parent="Xx6fClMvF3adJYa_DgLy-7" vertex="1">
                    <mxGeometry width="186.27522935779817" height="30" as="geometry"/>
                </mxCell>
                <mxCell id="Xx6fClMvF3adJYa_DgLy-9" value="" style="triangle;whiteSpace=wrap;html=1;rotation=90;rounded=1;container=0;" parent="Xx6fClMvF3adJYa_DgLy-7" vertex="1">
                    <mxGeometry x="168.80527391874182" y="8.439999999999998" width="8.874684141546528" height="13.12" as="geometry"/>
                </mxCell>
                <mxCell id="Xx6fClMvF3adJYa_DgLy-10" value="RESET" style="rounded=0;whiteSpace=wrap;html=1;container=0;" parent="Xx6fClMvF3adJYa_DgLy-1" vertex="1">
                    <mxGeometry x="21.055045871559635" y="264.3299999999999" width="90.53174311926607" height="30" as="geometry"/>
                </mxCell>
                <mxCell id="Xx6fClMvF3adJYa_DgLy-11" value="INVERTI CSV" style="rounded=0;whiteSpace=wrap;html=1;container=0;" parent="Xx6fClMvF3adJYa_DgLy-1" vertex="1">
                    <mxGeometry x="122.11926605504588" y="264.33000000000015" width="89.17431192660551" height="30" as="geometry"/>
                </mxCell>
                <mxCell id="Xx6fClMvF3adJYa_DgLy-12" value="&lt;span style=&quot;white-space: pre;&quot;&gt;&#9;&lt;/span&gt;CSV 1: NOME CSV" style="rounded=0;whiteSpace=wrap;html=1;" parent="Xx6fClMvF3adJYa_DgLy-1" vertex="1">
                    <mxGeometry x="19.816513761467892" y="234" width="190.23853211009174" height="24" as="geometry"/>
                </mxCell>
                <mxCell id="Xx6fClMvF3adJYa_DgLy-13" value="&lt;span style=&quot;white-space: pre;&quot;&gt;&#9;&lt;/span&gt;CSV 2: NOME CSV" style="rounded=0;whiteSpace=wrap;html=1;" parent="Xx6fClMvF3adJYa_DgLy-1" vertex="1">
                    <mxGeometry x="221.94495412844037" y="234" width="190.23853211009174" height="24" as="geometry"/>
                </mxCell>
                <mxCell id="Xx6fClMvF3adJYa_DgLy-14" value="" style="group" parent="Xx6fClMvF3adJYa_DgLy-1" vertex="1" connectable="0">
                    <mxGeometry x="19.816513761467892" y="54" width="410.20183486238534" height="246" as="geometry"/>
                </mxCell>
                <mxCell id="Xx6fClMvF3adJYa_DgLy-15" value="PREVIEW DELLE PRIME &lt;br&gt;5 COLONNE" style="rounded=0;whiteSpace=wrap;html=1;container=0;" parent="Xx6fClMvF3adJYa_DgLy-14" vertex="1">
                    <mxGeometry width="392.36697247706417" height="172" as="geometry"/>
                </mxCell>
                <mxCell id="Xx6fClMvF3adJYa_DgLy-16" value="" style="group" parent="Xx6fClMvF3adJYa_DgLy-14" vertex="1" connectable="0">
                    <mxGeometry x="3.923669724770642" y="146.70588235294116" width="112.47853211009175" height="25.294117647058822" as="geometry"/>
                </mxCell>
                <mxCell id="Xx6fClMvF3adJYa_DgLy-17" value="CSV 1" style="text;html=1;strokeColor=none;fillColor=none;align=center;verticalAlign=middle;whiteSpace=wrap;rounded=1;fontSize=11;container=0;" parent="Xx6fClMvF3adJYa_DgLy-16" vertex="1">
                    <mxGeometry y="6.323529411764706" width="65.39449541284402" height="12.647058823529411" as="geometry"/>
                </mxCell>
                <mxCell id="Xx6fClMvF3adJYa_DgLy-18" value="CSV 2" style="text;html=1;strokeColor=none;fillColor=none;align=center;verticalAlign=middle;whiteSpace=wrap;rounded=1;fontSize=11;container=0;" parent="Xx6fClMvF3adJYa_DgLy-16" vertex="1">
                    <mxGeometry x="56.239266055045874" y="6.323529411764706" width="56.239266055045874" height="12.647058823529411" as="geometry"/>
                </mxCell>
                <mxCell id="Xx6fClMvF3adJYa_DgLy-19" value="" style="endArrow=none;html=1;fontSize=11;entryX=1.001;entryY=0.856;entryDx=0;entryDy=0;entryPerimeter=0;" parent="Xx6fClMvF3adJYa_DgLy-16" target="Xx6fClMvF3adJYa_DgLy-15" edge="1">
                    <mxGeometry width="50" height="50" relative="1" as="geometry">
                        <mxPoint x="56.239266055045874" as="sourcePoint"/>
                        <mxPoint x="291.6594495412844" as="targetPoint"/>
                    </mxGeometry>
                </mxCell>
                <mxCell id="Xx6fClMvF3adJYa_DgLy-20" value="" style="endArrow=none;html=1;fontSize=11;" parent="Xx6fClMvF3adJYa_DgLy-16" edge="1">
                    <mxGeometry width="50" height="50" relative="1" as="geometry">
                        <mxPoint x="56.239266055045874" y="25.294117647058822" as="sourcePoint"/>
                        <mxPoint x="56.239266055045874" as="targetPoint"/>
                    </mxGeometry>
                </mxCell>
                <mxCell id="Xx6fClMvF3adJYa_DgLy-21" value="" style="endArrow=none;html=1;fontSize=11;" parent="Xx6fClMvF3adJYa_DgLy-16" edge="1">
                    <mxGeometry width="50" height="50" relative="1" as="geometry">
                        <mxPoint x="108.5548623853211" y="25.294117647058822" as="sourcePoint"/>
                        <mxPoint x="108.5548623853211" as="targetPoint"/>
                    </mxGeometry>
                </mxCell>
                <mxCell id="Xx6fClMvF3adJYa_DgLy-22" value="" style="group" parent="Xx6fClMvF3adJYa_DgLy-14" vertex="1" connectable="0">
                    <mxGeometry x="57.467889908256886" y="-66" width="352.73394495412845" height="312" as="geometry"/>
                </mxCell>
                <mxCell id="Xx6fClMvF3adJYa_DgLy-23" value="" style="rounded=0;whiteSpace=wrap;html=1;glass=0;shadow=0;opacity=60;" parent="Xx6fClMvF3adJYa_DgLy-22" vertex="1">
                    <mxGeometry x="-75.30275229357798" y="12" width="428.03669724770646" height="300" as="geometry"/>
                </mxCell>
                <mxCell id="Xx6fClMvF3adJYa_DgLy-24" value="Finestra di salvataggio" style="rounded=0;whiteSpace=wrap;html=1;shadow=0;glass=0;strokeColor=#00CC00;" parent="Xx6fClMvF3adJYa_DgLy-22" vertex="1">
                    <mxGeometry x="9.908256880733946" y="52" width="257.6146788990826" height="200" as="geometry"/>
                </mxCell>
                <mxCell id="Xx6fClMvF3adJYa_DgLy-25" value="6" style="ellipse;whiteSpace=wrap;html=1;aspect=fixed;fontSize=18;opacity=60;fillColor=#a20025;fontColor=#ffffff;strokeColor=#6F0000;" parent="1" vertex="1">
                    <mxGeometry x="916" y="420" width="25" height="25" as="geometry"/>
                </mxCell>
                <mxCell id="IZg98TMpzyb9ydPFIPWO-1" value="" style="endArrow=classic;html=1;strokeWidth=2;curved=1;exitX=0.5;exitY=1;exitDx=0;exitDy=0;entryX=1;entryY=0.5;entryDx=0;entryDy=0;fillColor=#e51400;strokeColor=#B20000;sketch=1;curveFitting=1;jiggle=2;" parent="1" source="VkCs9N56I_b7A1iho_sI-6" target="Xx6fClMvF3adJYa_DgLy-23" edge="1">
                    <mxGeometry width="50" height="50" relative="1" as="geometry">
                        <mxPoint x="1676" y="794.2379999999998" as="sourcePoint"/>
                        <mxPoint x="1561.5903119266059" y="791.9999999999998" as="targetPoint"/>
                        <Array as="points">
                            <mxPoint x="1804" y="736"/>
                            <mxPoint x="1608" y="732"/>
                            <mxPoint x="1408" y="736"/>
                            <mxPoint x="1404" y="592"/>
                        </Array>
                    </mxGeometry>
                </mxCell>
                <mxCell id="SEFOXtMstA-acLcAuNlk-1" value="" style="group" parent="1" vertex="1" connectable="0">
                    <mxGeometry x="364" y="-368" width="436" height="302" as="geometry"/>
                </mxCell>
                <mxCell id="SEFOXtMstA-acLcAuNlk-2" value="" style="rounded=0;whiteSpace=wrap;html=1;glass=0;shadow=0;container=0;" parent="SEFOXtMstA-acLcAuNlk-1" vertex="1">
                    <mxGeometry width="436" height="302" as="geometry"/>
                </mxCell>
                <mxCell id="SEFOXtMstA-acLcAuNlk-3" value="Carica" style="rounded=0;whiteSpace=wrap;html=1;container=0;" parent="SEFOXtMstA-acLcAuNlk-1" vertex="1">
                    <mxGeometry x="225.75" y="264.33000000000004" width="90" height="30" as="geometry"/>
                </mxCell>
                <mxCell id="SEFOXtMstA-acLcAuNlk-4" value="Applica" style="rounded=0;whiteSpace=wrap;html=1;container=0;" parent="SEFOXtMstA-acLcAuNlk-1" vertex="1">
                    <mxGeometry x="324.75" y="14" width="90" height="30" as="geometry"/>
                </mxCell>
                <mxCell id="SEFOXtMstA-acLcAuNlk-5" value="Info" style="rounded=0;whiteSpace=wrap;html=1;container=0;" parent="SEFOXtMstA-acLcAuNlk-1" vertex="1">
                    <mxGeometry x="20" y="14" width="91.37" height="30" as="geometry"/>
                </mxCell>
                <mxCell id="SEFOXtMstA-acLcAuNlk-6" value="&lt;font color=&quot;#6e6e6e&quot;&gt;Salva&lt;/font&gt;" style="rounded=0;whiteSpace=wrap;html=1;fontSize=11;opacity=50;container=0;" parent="SEFOXtMstA-acLcAuNlk-1" vertex="1">
                    <mxGeometry x="326" y="264.3299999999999" width="90" height="30" as="geometry"/>
                </mxCell>
                <mxCell id="SEFOXtMstA-acLcAuNlk-10" value="Reset" style="rounded=0;whiteSpace=wrap;html=1;container=0;" parent="SEFOXtMstA-acLcAuNlk-1" vertex="1">
                    <mxGeometry x="21.25" y="264.3299999999999" width="91.37" height="30" as="geometry"/>
                </mxCell>
                <mxCell id="SEFOXtMstA-acLcAuNlk-11" value="Inverti" style="rounded=0;whiteSpace=wrap;html=1;container=0;" parent="SEFOXtMstA-acLcAuNlk-1" vertex="1">
                    <mxGeometry x="123.25" y="264.33000000000015" width="90" height="30" as="geometry"/>
                </mxCell>
                <mxCell id="SEFOXtMstA-acLcAuNlk-12" value="" style="group" parent="SEFOXtMstA-acLcAuNlk-1" vertex="1" connectable="0">
                    <mxGeometry x="20" y="54" width="396" height="172" as="geometry"/>
                </mxCell>
                <mxCell id="SEFOXtMstA-acLcAuNlk-13" value="PREVIEW DELLE PRIME &lt;br&gt;5 COLONNE" style="rounded=0;whiteSpace=wrap;html=1;container=0;" parent="SEFOXtMstA-acLcAuNlk-12" vertex="1">
                    <mxGeometry width="395.99999999999994" height="172" as="geometry"/>
                </mxCell>
                <mxCell id="SEFOXtMstA-acLcAuNlk-14" value="" style="group" parent="SEFOXtMstA-acLcAuNlk-12" vertex="1" connectable="0">
                    <mxGeometry x="3.9599999999999995" y="146.70588235294116" width="113.52" height="25.294117647058822" as="geometry"/>
                </mxCell>
                <mxCell id="SEFOXtMstA-acLcAuNlk-15" value="CSV 1" style="text;html=1;strokeColor=none;fillColor=none;align=center;verticalAlign=middle;whiteSpace=wrap;rounded=1;fontSize=11;container=0;" parent="SEFOXtMstA-acLcAuNlk-14" vertex="1">
                    <mxGeometry y="6.323529411764706" width="65.99999999999999" height="12.647058823529411" as="geometry"/>
                </mxCell>
                <mxCell id="SEFOXtMstA-acLcAuNlk-16" value="CSV 2" style="text;html=1;strokeColor=none;fillColor=none;align=center;verticalAlign=middle;whiteSpace=wrap;rounded=1;fontSize=11;container=0;" parent="SEFOXtMstA-acLcAuNlk-14" vertex="1">
                    <mxGeometry x="56.76" y="6.323529411764706" width="56.76" height="12.647058823529411" as="geometry"/>
                </mxCell>
                <mxCell id="SEFOXtMstA-acLcAuNlk-17" value="" style="endArrow=none;html=1;fontSize=11;entryX=1.001;entryY=0.856;entryDx=0;entryDy=0;entryPerimeter=0;" parent="SEFOXtMstA-acLcAuNlk-14" target="SEFOXtMstA-acLcAuNlk-13" edge="1">
                    <mxGeometry width="50" height="50" relative="1" as="geometry">
                        <mxPoint x="56.76" as="sourcePoint"/>
                        <mxPoint x="294.35999999999996" as="targetPoint"/>
                    </mxGeometry>
                </mxCell>
                <mxCell id="SEFOXtMstA-acLcAuNlk-18" value="" style="endArrow=none;html=1;fontSize=11;" parent="SEFOXtMstA-acLcAuNlk-14" edge="1">
                    <mxGeometry width="50" height="50" relative="1" as="geometry">
                        <mxPoint x="56.76" y="25.294117647058822" as="sourcePoint"/>
                        <mxPoint x="56.76" as="targetPoint"/>
                    </mxGeometry>
                </mxCell>
                <mxCell id="SEFOXtMstA-acLcAuNlk-19" value="" style="endArrow=none;html=1;fontSize=11;" parent="SEFOXtMstA-acLcAuNlk-14" edge="1">
                    <mxGeometry width="50" height="50" relative="1" as="geometry">
                        <mxPoint x="109.55999999999999" y="25.294117647058822" as="sourcePoint"/>
                        <mxPoint x="109.55999999999999" as="targetPoint"/>
                    </mxGeometry>
                </mxCell>
                <mxCell id="SEFOXtMstA-acLcAuNlk-20" value="Nome CSV 1: Banana" style="rounded=0;whiteSpace=wrap;html=1;" parent="SEFOXtMstA-acLcAuNlk-1" vertex="1">
                    <mxGeometry x="20" y="234" width="192" height="24" as="geometry"/>
                </mxCell>
                <mxCell id="SEFOXtMstA-acLcAuNlk-21" value="Nome CSV 2: Lampone" style="rounded=0;whiteSpace=wrap;html=1;" parent="SEFOXtMstA-acLcAuNlk-1" vertex="1">
                    <mxGeometry x="224" y="234" width="192" height="24" as="geometry"/>
                </mxCell>
                <mxCell id="SEFOXtMstA-acLcAuNlk-7" value="" style="group;rounded=1;strokeColor=#C7BA00;container=0;" parent="SEFOXtMstA-acLcAuNlk-1" vertex="1" connectable="0">
                    <mxGeometry x="122" y="14" width="188" height="160" as="geometry"/>
                </mxCell>
                <mxCell id="SEFOXtMstA-acLcAuNlk-23" value="" style="group" parent="SEFOXtMstA-acLcAuNlk-1" vertex="1" connectable="0">
                    <mxGeometry x="122" y="14" width="188" height="160" as="geometry"/>
                </mxCell>
                <mxCell id="SEFOXtMstA-acLcAuNlk-8" value="FUNZIONE 1&lt;br&gt;FUNZIONE 2&lt;br&gt;FUNZIONE 3&lt;br&gt;FUNZIONE 4&lt;br&gt;FUNZIONE 5&lt;br&gt;FUNZIONE 6&lt;br&gt;FUNZIONE 7&lt;br&gt;FUNZIONE 8&lt;br&gt;FUNZIONE 9&lt;br&gt;FUNZIONE 10" style="rounded=0;whiteSpace=wrap;html=1;container=0;verticalAlign=top;strokeColor=#00CC00;" parent="SEFOXtMstA-acLcAuNlk-23" vertex="1">
                    <mxGeometry width="188" height="160" as="geometry"/>
                </mxCell>
                <mxCell id="SEFOXtMstA-acLcAuNlk-9" value="" style="triangle;whiteSpace=wrap;html=1;rotation=90;rounded=0;container=0;strokeColor=#C7BA00;" parent="SEFOXtMstA-acLcAuNlk-23" vertex="1">
                    <mxGeometry x="170.36828571428572" y="8.439999999999998" width="8.956857142857142" height="13.12" as="geometry"/>
                </mxCell>
                <mxCell id="SEFOXtMstA-acLcAuNlk-25" value="3" style="ellipse;whiteSpace=wrap;html=1;aspect=fixed;fontSize=18;opacity=60;fillColor=#a20025;fontColor=#ffffff;strokeColor=#6F0000;container=0;" parent="1" vertex="1">
                    <mxGeometry x="-196" width="25" height="25" as="geometry"/>
                </mxCell>
                <mxCell id="Va1K0bKig-O1nhW0etFX-2" value="" style="rounded=0;whiteSpace=wrap;html=1;glass=0;shadow=0;container=0;strokeColor=default;" parent="1" vertex="1">
                    <mxGeometry x="356" y="38" width="436" height="302" as="geometry"/>
                </mxCell>
                <mxCell id="Va1K0bKig-O1nhW0etFX-3" value="Carica" style="rounded=0;whiteSpace=wrap;html=1;container=0;" parent="1" vertex="1">
                    <mxGeometry x="581.75" y="302.33000000000004" width="90" height="30" as="geometry"/>
                </mxCell>
                <mxCell id="Va1K0bKig-O1nhW0etFX-9" value="Applica" style="rounded=0;whiteSpace=wrap;html=1;container=0;" parent="1" vertex="1">
                    <mxGeometry x="680.75" y="52" width="90" height="30" as="geometry"/>
                </mxCell>
                <mxCell id="Va1K0bKig-O1nhW0etFX-13" value="Info" style="rounded=0;whiteSpace=wrap;html=1;container=0;" parent="1" vertex="1">
                    <mxGeometry x="376" y="52" width="91.37" height="30" as="geometry"/>
                </mxCell>
                <mxCell id="Va1K0bKig-O1nhW0etFX-15" value="&lt;font color=&quot;#6e6e6e&quot;&gt;Salva&lt;/font&gt;" style="rounded=0;whiteSpace=wrap;html=1;fontSize=11;opacity=50;container=0;" parent="1" vertex="1">
                    <mxGeometry x="682" y="302.3299999999999" width="90" height="30" as="geometry"/>
                </mxCell>
                <mxCell id="Va1K0bKig-O1nhW0etFX-33" value="" style="group;rounded=1;" parent="1" vertex="1" connectable="0">
                    <mxGeometry x="478" y="52" width="188" height="30" as="geometry"/>
                </mxCell>
                <mxCell id="Va1K0bKig-O1nhW0etFX-11" value="LISTA FUNZIONI" style="rounded=0;whiteSpace=wrap;html=1;container=0;" parent="Va1K0bKig-O1nhW0etFX-33" vertex="1">
                    <mxGeometry width="188" height="30" as="geometry"/>
                </mxCell>
                <mxCell id="Va1K0bKig-O1nhW0etFX-12" value="" style="triangle;whiteSpace=wrap;html=1;rotation=90;rounded=1;container=0;" parent="Va1K0bKig-O1nhW0etFX-33" vertex="1">
                    <mxGeometry x="170.36828571428572" y="8.439999999999998" width="8.956857142857142" height="13.12" as="geometry"/>
                </mxCell>
                <mxCell id="s6jNCquEcq5eGCqOY23A-1" value="Reset" style="rounded=0;whiteSpace=wrap;html=1;container=0;" parent="1" vertex="1">
                    <mxGeometry x="377.25" y="302.3299999999999" width="91.37" height="30" as="geometry"/>
                </mxCell>
                <mxCell id="s6jNCquEcq5eGCqOY23A-3" value="Inverti" style="rounded=0;whiteSpace=wrap;html=1;container=0;" parent="1" vertex="1">
                    <mxGeometry x="479.25" y="302.33000000000015" width="90" height="30" as="geometry"/>
                </mxCell>
                <mxCell id="8cIe6j1ymai7kTpLFoAI-1" value="" style="group" parent="1" vertex="1" connectable="0">
                    <mxGeometry x="376" y="92" width="396" height="172" as="geometry"/>
                </mxCell>
                <mxCell id="Va1K0bKig-O1nhW0etFX-17" value="PREVIEW DELLE PRIME &lt;br&gt;5 COLONNE" style="rounded=0;whiteSpace=wrap;html=1;container=0;" parent="8cIe6j1ymai7kTpLFoAI-1" vertex="1">
                    <mxGeometry width="395.99999999999994" height="172" as="geometry"/>
                </mxCell>
                <mxCell id="Va1K0bKig-O1nhW0etFX-34" value="" style="group" parent="8cIe6j1ymai7kTpLFoAI-1" vertex="1" connectable="0">
                    <mxGeometry x="3.9599999999999995" y="146.70588235294116" width="113.52" height="25.294117647058822" as="geometry"/>
                </mxCell>
                <mxCell id="Va1K0bKig-O1nhW0etFX-22" value="CSV 1" style="text;html=1;strokeColor=none;fillColor=none;align=center;verticalAlign=middle;whiteSpace=wrap;rounded=1;fontSize=11;container=0;" parent="Va1K0bKig-O1nhW0etFX-34" vertex="1">
                    <mxGeometry y="6.323529411764706" width="65.99999999999999" height="12.647058823529411" as="geometry"/>
                </mxCell>
                <mxCell id="Va1K0bKig-O1nhW0etFX-23" value="CSV 2" style="text;html=1;strokeColor=none;fillColor=none;align=center;verticalAlign=middle;whiteSpace=wrap;rounded=1;fontSize=11;container=0;" parent="Va1K0bKig-O1nhW0etFX-34" vertex="1">
                    <mxGeometry x="56.76" y="6.323529411764706" width="56.76" height="12.647058823529411" as="geometry"/>
                </mxCell>
                <mxCell id="Va1K0bKig-O1nhW0etFX-19" value="" style="endArrow=none;html=1;fontSize=11;entryX=1.001;entryY=0.856;entryDx=0;entryDy=0;entryPerimeter=0;" parent="Va1K0bKig-O1nhW0etFX-34" target="Va1K0bKig-O1nhW0etFX-17" edge="1">
                    <mxGeometry width="50" height="50" relative="1" as="geometry">
                        <mxPoint x="56.76" as="sourcePoint"/>
                        <mxPoint x="294.35999999999996" as="targetPoint"/>
                    </mxGeometry>
                </mxCell>
                <mxCell id="Va1K0bKig-O1nhW0etFX-20" value="" style="endArrow=none;html=1;fontSize=11;" parent="Va1K0bKig-O1nhW0etFX-34" edge="1">
                    <mxGeometry width="50" height="50" relative="1" as="geometry">
                        <mxPoint x="56.76" y="25.294117647058822" as="sourcePoint"/>
                        <mxPoint x="56.76" as="targetPoint"/>
                    </mxGeometry>
                </mxCell>
                <mxCell id="Va1K0bKig-O1nhW0etFX-21" value="" style="endArrow=none;html=1;fontSize=11;" parent="Va1K0bKig-O1nhW0etFX-34" edge="1">
                    <mxGeometry width="50" height="50" relative="1" as="geometry">
                        <mxPoint x="109.55999999999999" y="25.294117647058822" as="sourcePoint"/>
                        <mxPoint x="109.55999999999999" as="targetPoint"/>
                    </mxGeometry>
                </mxCell>
                <mxCell id="uFQ15S7TFOjDT4WkhTVe-1" value="Nome CSV 1: Banana" style="rounded=0;whiteSpace=wrap;html=1;" parent="1" vertex="1">
                    <mxGeometry x="376" y="272" width="192" height="24" as="geometry"/>
                </mxCell>
                <mxCell id="uFQ15S7TFOjDT4WkhTVe-2" value="Nome CSV 2: Lampone" style="rounded=0;whiteSpace=wrap;html=1;" parent="1" vertex="1">
                    <mxGeometry x="580" y="272" width="192" height="24" as="geometry"/>
                </mxCell>
                <mxCell id="Xf73h5IqTJwSJyaApLm8-1" value="" style="endArrow=classic;html=1;strokeWidth=2;curved=1;exitX=0;exitY=0.5;exitDx=0;exitDy=0;entryX=0.003;entryY=0.664;entryDx=0;entryDy=0;entryPerimeter=0;fillColor=#e51400;strokeColor=#B20000;sketch=1;curveFitting=1;jiggle=2;" parent="1" source="s6jNCquEcq5eGCqOY23A-1" target="Va1K0bKig-O1nhW0etFX-2" edge="1">
                    <mxGeometry width="50" height="50" relative="1" as="geometry">
                        <mxPoint x="176" y="558" as="sourcePoint"/>
                        <mxPoint x="352" y="204" as="targetPoint"/>
                        <Array as="points">
                            <mxPoint x="288" y="332"/>
                            <mxPoint x="272" y="276"/>
                        </Array>
                    </mxGeometry>
                </mxCell>
                <mxCell id="FRBeRjUNlBqpFFE5mqDK-1" value="" style="endArrow=classic;html=1;exitX=0.5;exitY=1;exitDx=0;exitDy=0;entryX=0.486;entryY=0.005;entryDx=0;entryDy=0;entryPerimeter=0;curved=1;strokeWidth=2;fillColor=#e51400;strokeColor=#B20000;sketch=1;curveFitting=1;jiggle=2;" parent="1" source="Va1K0bKig-O1nhW0etFX-3" target="2i_cKFGTGKDReKxksOiq-15" edge="1">
                    <mxGeometry width="50" height="50" relative="1" as="geometry">
                        <mxPoint x="308" y="415" as="sourcePoint"/>
                        <mxPoint x="358" y="365" as="targetPoint"/>
                        <Array as="points">
                            <mxPoint x="608" y="380"/>
                            <mxPoint x="668" y="392"/>
                        </Array>
                    </mxGeometry>
                </mxCell>
                <mxCell id="382nkdmMPTcBsGCsCdax-22" value="" style="endArrow=classic;html=1;strokeWidth=2;curved=1;exitX=0;exitY=0.5;exitDx=0;exitDy=0;entryX=1;entryY=0.5;entryDx=0;entryDy=0;fillColor=#e51400;strokeColor=#B20000;sketch=1;curveFitting=1;jiggle=2;" parent="1" source="Va1K0bKig-O1nhW0etFX-13" target="382nkdmMPTcBsGCsCdax-23" edge="1">
                    <mxGeometry width="50" height="50" relative="1" as="geometry">
                        <mxPoint x="264" y="110" as="sourcePoint"/>
                        <mxPoint x="276" y="132" as="targetPoint"/>
                        <Array as="points">
                            <mxPoint x="312" y="64"/>
                            <mxPoint x="296" y="176"/>
                        </Array>
                    </mxGeometry>
                </mxCell>
                <mxCell id="382nkdmMPTcBsGCsCdax-53" value="" style="endArrow=classic;html=1;strokeWidth=2;curved=1;exitX=1;exitY=0.5;exitDx=0;exitDy=0;entryX=-0.006;entryY=0.091;entryDx=0;entryDy=0;entryPerimeter=0;fillColor=#e51400;strokeColor=#B20000;sketch=1;curveFitting=1;jiggle=2;" parent="1" source="Va1K0bKig-O1nhW0etFX-9" target="IW4g8JKvDsniSrIX1dA_-23" edge="1">
                    <mxGeometry width="50" height="50" relative="1" as="geometry">
                        <mxPoint x="976" y="150" as="sourcePoint"/>
                        <mxPoint x="928" y="64" as="targetPoint"/>
                    </mxGeometry>
                </mxCell>
                <mxCell id="SEFOXtMstA-acLcAuNlk-24" value="" style="endArrow=classic;html=1;strokeWidth=2;fontColor=#FFFFFF;curved=1;exitX=0.534;exitY=0.059;exitDx=0;exitDy=0;exitPerimeter=0;entryX=0.5;entryY=1;entryDx=0;entryDy=0;fillColor=#e51400;strokeColor=#B20000;sketch=1;curveFitting=1;jiggle=2;" parent="1" source="Va1K0bKig-O1nhW0etFX-11" target="SEFOXtMstA-acLcAuNlk-8" edge="1">
                    <mxGeometry width="50" height="50" relative="1" as="geometry">
                        <mxPoint x="556" y="-10" as="sourcePoint"/>
                        <mxPoint x="606" y="-60" as="targetPoint"/>
                    </mxGeometry>
                </mxCell>
                <mxCell id="SEFOXtMstA-acLcAuNlk-27" value="&lt;font style=&quot;font-size: 15px;&quot;&gt;si&lt;br&gt;espande&lt;/font&gt;" style="edgeLabel;html=1;align=center;verticalAlign=middle;resizable=0;points=[];fontSize=13;fontColor=#FFFFFF;labelBorderColor=default;spacingTop=0;spacingLeft=0;labelBackgroundColor=#CC0000;" parent="SEFOXtMstA-acLcAuNlk-24" vertex="1" connectable="0">
                    <mxGeometry x="-0.2753" y="-2" relative="1" as="geometry">
                        <mxPoint as="offset"/>
                    </mxGeometry>
                </mxCell>
                <mxCell id="ovCg0G-jqVNITn4jlDyE-1" value="" style="endArrow=classic;html=1;strokeWidth=2;curved=1;exitX=0.5;exitY=1;exitDx=0;exitDy=0;entryX=1;entryY=0.5;entryDx=0;entryDy=0;fillColor=#e51400;strokeColor=#B20000;sketch=1;curveFitting=1;jiggle=2;" parent="1" source="s6jNCquEcq5eGCqOY23A-3" target="ovCg0G-jqVNITn4jlDyE-22" edge="1">
                    <mxGeometry width="50" height="50" relative="1" as="geometry">
                        <mxPoint x="517.13" y="399.3299999999999" as="sourcePoint"/>
                        <mxPoint x="440" y="656" as="targetPoint"/>
                        <Array as="points">
                            <mxPoint x="328" y="408"/>
                            <mxPoint x="380" y="584"/>
                        </Array>
                    </mxGeometry>
                </mxCell>
            </root>
        </mxGraphModel>
    </diagram>
</mxfile>